<svg width="20" height="20" viewBox="0 0 20 20" fill="none" xmlns="http://www.w3.org/2000/svg">
<path fill-rule="evenodd" clip-rule="evenodd" d="M9.99996 2.96147C9.95626 2.99542 9.90617 3.03545 9.84379 3.08535L8.44347 4.20561C8.43754 4.21035 8.43156 4.21514 8.42553 4.21997C8.32591 4.29973 8.21215 4.39081 8.1039 4.46063C7.97466 4.54398 7.80406 4.631 7.58499 4.65925C7.36593 4.6875 7.17882 4.64662 7.03267 4.59878C6.91024 4.55871 6.7771 4.49947 6.6605 4.4476C6.65344 4.44445 6.64644 4.44134 6.63951 4.43826L4.79605 3.61895C4.58824 3.52658 4.41799 3.45132 4.27623 3.39137C4.32374 3.53777 4.38405 3.71387 4.45816 3.92887L7.32641 12.2499H12.6735L15.5418 3.92887C15.6159 3.71387 15.6762 3.53777 15.7237 3.39137C15.5819 3.45132 15.4117 3.52658 15.2039 3.61895L13.3604 4.43826C13.3535 4.44134 13.3465 4.44446 13.3394 4.4476C13.2228 4.49947 13.0897 4.55871 12.9673 4.59878C12.8211 4.64662 12.634 4.6875 12.4149 4.65925C12.1959 4.631 12.0253 4.54398 11.896 4.46063C11.7878 4.39081 11.674 4.29973 11.5744 4.21997C11.5684 4.21514 11.5624 4.21035 11.5565 4.20561L10.1561 3.08535C10.0938 3.03545 10.0437 2.99542 9.99996 2.96147ZM12.4583 13.7499H7.54163V14.7916C7.54163 16.1493 8.64226 17.2499 9.99996 17.2499C11.3577 17.2499 12.4583 16.1493 12.4583 14.7916V13.7499ZM9.99996 18.7499C7.81384 18.7499 6.04163 16.9777 6.04163 14.7916V13.1256L3.04005 4.41769C3.03437 4.40123 3.02871 4.38481 3.02306 4.36843C2.87725 3.94562 2.74202 3.55351 2.68173 3.23969C2.62332 2.93568 2.5717 2.39746 3.0023 2.00249C3.4329 1.60753 3.96467 1.70534 4.26252 1.78973C4.56998 1.87684 4.94898 2.04536 5.35765 2.22706C5.37347 2.2341 5.38935 2.24116 5.40526 2.24823L7.24872 3.06754C7.30466 3.0924 7.34912 3.11214 7.3876 3.12869C7.42063 3.10292 7.45863 3.07255 7.50643 3.03431L8.90675 1.91405C8.91424 1.90806 8.92179 1.90201 8.92938 1.89593C9.05896 1.79219 9.20313 1.67675 9.33951 1.59236C9.50124 1.49227 9.72094 1.39026 9.99996 1.39026C10.279 1.39026 10.4987 1.49227 10.6604 1.59236C10.7968 1.67675 10.941 1.79219 11.0705 1.89594C11.0781 1.90202 11.0857 1.90806 11.0932 1.91405L12.4935 3.03431C12.5413 3.07255 12.5793 3.10292 12.6123 3.12869C12.6508 3.11214 12.6953 3.0924 12.7512 3.06754L14.5947 2.24823C14.6106 2.24116 14.6265 2.2341 14.6423 2.22706C15.0509 2.04536 15.43 1.87684 15.7374 1.78973C16.0353 1.70534 16.567 1.60753 16.9976 2.00249C17.4282 2.39746 17.3766 2.93568 17.3182 3.23969C17.2579 3.55351 17.1227 3.94563 16.9769 4.36844C16.9712 4.38481 16.9656 4.40123 16.9599 4.41769L13.9583 13.1256V14.7916C13.9583 16.9777 12.1861 18.7499 9.99996 18.7499ZM7.81806 5.27234C8.21991 5.17188 8.62711 5.4162 8.72757 5.81804L9.22757 7.81804C9.32803 8.21989 9.08371 8.62709 8.68187 8.72755C8.28002 8.82801 7.87282 8.58369 7.77236 8.18185L7.27236 6.18185C7.1719 5.78 7.41622 5.3728 7.81806 5.27234ZM12.1819 5.27234C12.5837 5.3728 12.828 5.78 12.7276 6.18185L12.2276 8.18185C12.1271 8.58369 11.7199 8.82801 11.3181 8.72755C10.9162 8.62709 10.6719 8.21989 10.7724 7.81804L11.2724 5.81804C11.3728 5.4162 11.78 5.17188 12.1819 5.27234Z" fill="#25282B"/>
</svg>
