<svg width="20" height="20" viewBox="0 0 20 20" fill="none" xmlns="http://www.w3.org/2000/svg">
<path d="M10 11.5C10.8284 11.5 11.5 10.8284 11.5 10C11.5 9.17158 10.8284 8.5 10 8.5C9.17157 8.5 8.5 9.17158 8.5 10C8.5 10.8284 9.17157 11.5 10 11.5Z" fill="#25282B"/>
<path fill-rule="evenodd" clip-rule="evenodd" d="M4.95063 3.25C4.28576 3.24996 3.7129 3.24993 3.25416 3.31161C2.76252 3.37771 2.29126 3.52677 1.90901 3.90901C1.52676 4.29126 1.37771 4.76252 1.31161 5.25416C1.2728 5.54277 1.25843 5.87656 1.25311 6.25H1.25V13.75H1.25311C1.25843 14.1235 1.2728 14.4572 1.31161 14.7458C1.37771 15.2375 1.52676 15.7087 1.90901 16.091C2.29126 16.4732 2.76252 16.6223 3.25416 16.6884C3.71289 16.7501 4.28573 16.75 4.95057 16.75H15.0494C15.7142 16.75 16.2871 16.7501 16.7458 16.6884C17.2375 16.6223 17.7087 16.4732 18.091 16.091C18.4732 15.7087 18.6223 15.2375 18.6884 14.7458C18.7272 14.4572 18.7416 14.1234 18.7469 13.75H18.75V6.25H18.7469C18.7416 5.87656 18.7272 5.54277 18.6884 5.25416C18.6223 4.76252 18.4732 4.29126 18.091 3.90901C17.7087 3.52677 17.2375 3.37771 16.7458 3.31161C16.2871 3.24993 15.7142 3.24996 15.0494 3.25H4.95063ZM10.75 14L10.75 15.25H15C15.7283 15.25 16.1991 15.2484 16.546 15.2018C16.8713 15.158 16.9732 15.0874 17.0303 15.0303C17.0874 14.9732 17.158 14.8713 17.2018 14.546C17.2302 14.3342 17.2419 14.0762 17.2467 13.7416C15.2938 13.6113 13.75 11.9859 13.75 10C13.75 8.01406 15.2938 6.38868 17.2467 6.25842C17.2419 5.92382 17.2302 5.66583 17.2018 5.45403C17.158 5.12873 17.0874 5.02677 17.0303 4.96967C16.9732 4.91258 16.8713 4.84197 16.546 4.79823C16.1991 4.7516 15.7283 4.75 15 4.75H10.75L10.75 6C10.75 6.41422 10.4142 6.75 10 6.75C9.58579 6.75 9.25 6.41422 9.25 6L9.25 4.75H5C4.27169 4.75 3.80091 4.7516 3.45403 4.79823C3.12873 4.84197 3.02676 4.91258 2.96967 4.96967C2.91258 5.02677 2.84197 5.12873 2.79823 5.45403C2.76976 5.66583 2.75807 5.92382 2.75329 6.25842C4.70624 6.38868 6.25 8.01406 6.25 10C6.25 11.9859 4.70624 13.6113 2.75329 13.7416C2.75807 14.0762 2.76976 14.3342 2.79823 14.546C2.84197 14.8713 2.91258 14.9732 2.96967 15.0303C3.02676 15.0874 3.12873 15.158 3.45403 15.2018C3.80091 15.2484 4.27169 15.25 5 15.25H9.25L9.25 14C9.25 13.5858 9.58579 13.25 10 13.25C10.4142 13.25 10.75 13.5858 10.75 14ZM15.25 10C15.25 8.84187 16.125 7.8881 17.25 7.76374V12.2363C16.125 12.1119 15.25 11.1581 15.25 10ZM2.75 7.76374V12.2363C3.87499 12.1119 4.75 11.1581 4.75 10C4.75 8.84187 3.87499 7.8881 2.75 7.76374Z" fill="#25282B"/>
</svg>
