<svg width="16" height="16" viewBox="0 0 16 16" fill="none" xmlns="http://www.w3.org/2000/svg">
<path d="M14.6668 7.71137C14.6668 11.2334 11.6815 14.0887 8.00016 14.0887C7.56594 14.0892 7.13594 14.0496 6.71016 13.97C6.40416 13.912 6.2515 13.8834 6.14483 13.9C6.03816 13.916 5.88616 13.9967 5.5835 14.1574C4.72106 14.6167 3.7287 14.771 2.7675 14.5954C3.13466 14.1415 3.38364 13.6037 3.49216 13.03C3.55883 12.6767 3.3935 12.3334 3.1455 12.082C2.02283 10.9407 1.3335 9.40337 1.3335 7.71137C1.3335 4.18937 4.31883 1.33337 8.00016 1.33337C11.6815 1.33337 14.6668 4.18937 14.6668 7.71137Z" stroke="white" stroke-width="1.25" stroke-linecap="round" stroke-linejoin="round"/>
<path d="M6.66699 6.56404C6.66699 5.88404 7.26366 5.33337 8.00033 5.33337C8.73699 5.33337 9.33366 5.88471 9.33366 6.56404C9.33366 6.80937 9.25633 7.03737 9.12233 7.22937C8.72366 7.80004 8.00033 8.34604 8.00033 9.02604V9.33337M8.00033 11H8.00633" stroke="white" stroke-width="1.25" stroke-linecap="round" stroke-linejoin="round"/>
</svg>
