<svg width="14" height="14" viewBox="0 0 14 14" fill="none" xmlns="http://www.w3.org/2000/svg">
<path fill-rule="evenodd" clip-rule="evenodd" d="M6.99598 0.333374C10.6757 0.333374 13.6665 3.32565 13.6665 7.00004C13.6665 10.6744 10.6757 13.6667 6.99598 13.6667C3.324 13.6667 0.333169 10.6744 0.33317 7.00004C0.33317 3.32565 3.32401 0.333374 6.99598 0.333374ZM6.32127 9.44534C6.39202 9.51613 6.50137 9.60622 6.52709 9.62552C6.66216 9.72848 6.82939 9.77996 6.99598 9.77996C7.18315 9.77996 7.35681 9.72205 7.49831 9.61265C7.50727 9.60369 7.52637 9.58614 7.55127 9.56326C7.59786 9.52046 7.66474 9.45901 7.72343 9.4003C8.28943 8.87263 9.21563 7.49554 9.49863 6.77482C9.54301 6.66542 9.64013 6.38872 9.64657 6.24071C9.64657 6.09914 9.61441 5.96401 9.55009 5.83531C9.46004 5.67443 9.31854 5.54573 9.15131 5.47494C9.03553 5.4299 8.68821 5.35911 8.68178 5.35911C8.3023 5.28833 7.68484 5.24972 7.00305 5.24972C6.35279 5.24972 5.7617 5.28833 5.37578 5.34624C5.37419 5.34784 5.34659 5.35337 5.30371 5.36197C5.17336 5.38811 4.9018 5.44258 4.79048 5.50068C4.52034 5.64225 4.35311 5.91896 4.35311 6.21497L4.35311 6.24071C4.35954 6.43376 4.52677 6.83917 4.5332 6.83917C4.81621 7.52128 5.69738 8.86619 6.28268 9.40673L6.32127 9.44534Z" fill="white"/>
</svg>
