<svg width="20" height="20" viewBox="0 0 20 20" fill="none" xmlns="http://www.w3.org/2000/svg">
<path d="M11.3269 5.52064C11.6856 5.72775 12.1443 5.60484 12.3514 5.24612C12.5585 4.8874 12.4356 4.42871 12.0769 4.2216C11.7181 4.0145 11.2594 4.1374 11.0523 4.49612C10.8452 4.85484 10.9681 5.31353 11.3269 5.52064Z" fill="#25282B"/>
<path d="M13.4919 6.77064C13.8506 6.97775 14.3093 6.85484 14.5164 6.49612C14.7235 6.1374 14.6006 5.67871 14.2419 5.4716C13.8832 5.2645 13.4245 5.3874 13.2174 5.74612C13.0103 6.10484 13.1332 6.56353 13.4919 6.77064Z" fill="#25282B"/>
<path d="M10.8514 7.8442C10.6443 8.20292 10.1856 8.32582 9.82685 8.11872C9.46813 7.91161 9.34523 7.45292 9.55233 7.0942C9.75944 6.73548 10.2181 6.61257 10.5769 6.81968C10.9356 7.02679 11.0585 7.48548 10.8514 7.8442Z" fill="#25282B"/>
<path d="M13.0164 9.0942C12.8093 9.45292 12.3506 9.57582 11.9919 9.36872C11.6332 9.16161 11.5103 8.70292 11.7174 8.3442C11.9245 7.98548 12.3832 7.86257 12.7419 8.06968C13.1006 8.27679 13.2235 8.73548 13.0164 9.0942Z" fill="#25282B"/>
<path fill-rule="evenodd" clip-rule="evenodd" d="M10.3279 0.875992C11.6759 0.512481 13.1766 0.894475 14.875 1.87503C16.5734 2.85559 17.6546 3.96429 18.0138 5.31342C18.3733 6.66399 17.9528 8.0441 17.1527 9.4299C16.3555 10.8108 15.2199 12.173 13.7735 12.9242C13.5361 13.0475 13.2918 13.1534 13.0413 13.24L9.369 15.9117L7.69858 18.805C7.3534 19.4029 6.58891 19.6077 5.99105 19.2625L4.259 18.2625C3.66113 17.9173 3.45629 17.1529 3.80147 16.555L5.47189 13.6617L5.94954 9.1456C5.8993 8.88533 5.8689 8.62081 5.85697 8.35358C5.78427 6.72537 6.39619 5.06081 7.19345 3.6799C7.99355 2.2941 8.97851 1.23989 10.3279 0.875992ZM10.7185 2.32425C9.93094 2.53663 9.21118 3.18509 8.49249 4.4299C7.77098 5.6796 7.30044 7.05405 7.35548 8.28667C7.40806 9.46435 7.9384 10.5719 9.37502 11.4013C10.8116 12.2307 12.036 12.1363 13.0822 11.593C14.1772 11.0243 15.1322 9.9296 15.8537 8.6799C16.5724 7.4351 16.7741 6.48753 16.5643 5.69932C16.354 4.90968 15.6742 4.06851 14.125 3.17407C12.5758 2.27963 11.5074 2.11149 10.7185 2.32425ZM6.4755 14.9234L5.2255 17.0885L6.52454 17.8385L7.77454 15.6734L6.4755 14.9234ZM8.62502 12.7004C9.19576 13.0299 9.75574 13.2515 10.3007 13.3789L8.75196 14.5057L6.99809 13.4931L7.19953 11.5885C7.58231 11.9967 8.05428 12.3708 8.62502 12.7004Z" fill="#25282B"/>
</svg>
