<svg width="20" height="20" viewBox="0 0 20 20" fill="none" xmlns="http://www.w3.org/2000/svg">
<path fill-rule="evenodd" clip-rule="evenodd" d="M10.3279 0.875992C11.6759 0.512481 13.1766 0.894475 14.875 1.87503C16.5734 2.85559 17.6546 3.96429 18.0138 5.31342C18.3733 6.66399 17.9528 8.0441 17.1527 9.4299C16.3555 10.8108 15.2199 12.173 13.7735 12.9242C13.5361 13.0475 13.2918 13.1534 13.0413 13.24L9.369 15.9117L7.69858 18.805C7.3534 19.4029 6.58891 19.6077 5.99105 19.2625L4.259 18.2625C3.66113 17.9173 3.45629 17.1529 3.80147 16.555L5.47189 13.6617L5.94954 9.1456C5.8993 8.88533 5.8689 8.62081 5.85697 8.35358C5.78427 6.72537 6.39619 5.06081 7.19345 3.6799C7.99355 2.2941 8.97851 1.23989 10.3279 0.875992ZM10.7185 2.32425C9.93094 2.53663 9.21118 3.18509 8.49249 4.4299C7.77098 5.6796 7.30044 7.05405 7.35548 8.28667C7.40806 9.46435 7.9384 10.5719 9.37502 11.4013C10.8116 12.2307 12.036 12.1363 13.0822 11.593C14.1772 11.0243 15.1322 9.9296 15.8537 8.6799C16.5724 7.4351 16.7741 6.48753 16.5643 5.69932C16.354 4.90968 15.6742 4.06851 14.125 3.17407C12.5758 2.27963 11.5074 2.11149 10.7185 2.32425ZM6.4755 14.9234L5.2255 17.0885L6.52454 17.8385L7.77454 15.6734L6.4755 14.9234ZM8.62502 12.7004C9.19576 13.0299 9.75574 13.2515 10.3007 13.3789L8.75196 14.5057L6.99809 13.4931L7.19953 11.5885C7.58231 11.9967 8.05428 12.3708 8.62502 12.7004Z" fill="#25282B"/>
</svg>
