<svg width="20" height="20" viewBox="0 0 20 20" fill="none" xmlns="http://www.w3.org/2000/svg">
<path d="M14.2656 6.25557C14.0585 6.61429 13.5998 6.7372 13.241 6.53009L11.509 5.53009C11.1503 5.32298 11.0274 4.86429 11.2345 4.50557C11.4416 4.14685 11.9003 4.02395 12.259 4.23105L13.991 5.23105C14.3498 5.43816 14.4727 5.89685 14.2656 6.25557Z" fill="#25282B"/>
<path d="M11.741 9.12817C12.0998 9.33527 12.5585 9.21237 12.7656 8.85365C12.9727 8.49493 12.8498 8.03624 12.491 7.82913L10.759 6.82913C10.4003 6.62202 9.94159 6.74493 9.73448 7.10365C9.52737 7.46237 9.65028 7.92106 10.009 8.12817L11.741 9.12817Z" fill="#25282B"/>
<path fill-rule="evenodd" clip-rule="evenodd" d="M10.7042 0.981463C11.9533 0.508486 13.3238 0.804386 14.875 1.69997C16.4262 2.59554 17.3677 3.6345 17.5827 4.95279C17.7898 6.22261 17.2792 7.5358 16.5032 8.87983C15.7201 10.2363 14.4044 11.4485 13.0433 12.2547L9.39354 15.6942L7.69858 18.6299C7.3534 19.2278 6.58891 19.4326 5.99105 19.0875L4.259 18.0875C3.66113 17.7423 3.45629 16.9778 3.80147 16.3799L5.49643 13.4442L6.6502 8.56367C6.66783 6.98177 7.05983 5.23627 7.84297 3.87983C8.61895 2.5358 9.50093 1.43705 10.7042 0.981463ZM11.2353 2.38427C10.5452 2.64558 9.88482 3.34325 9.14201 4.62983C8.46423 5.80378 8.11691 7.42541 8.15198 8.87515C8.1694 9.59554 8.28068 10.237 8.46761 10.7347C8.65766 11.2407 8.8979 11.5281 9.12502 11.6593C9.35215 11.7904 9.72115 11.8548 10.2544 11.7663C10.7789 11.6793 11.3901 11.455 12.0227 11.1099C13.2957 10.4154 14.5264 9.30378 15.2042 8.12983C15.947 6.84325 16.221 5.92252 16.1022 5.1942C15.9914 4.51434 15.4967 3.79092 14.125 2.999C12.7534 2.20708 11.8795 2.14035 11.2353 2.38427ZM6.4755 14.7484L5.2255 16.9134L6.52454 17.6634L7.77454 15.4984L6.4755 14.7484ZM8.37502 12.9583C8.79246 13.1993 9.2625 13.2995 9.74008 13.3065L8.6908 14.2953L7.05925 13.3533L7.39095 11.9502C7.63581 12.3603 7.95759 12.7173 8.37502 12.9583Z" fill="#25282B"/>
</svg>
