<svg width="16" height="16" viewBox="0 0 16 16" fill="none" xmlns="http://www.w3.org/2000/svg">
<path fill-rule="evenodd" clip-rule="evenodd" d="M10.0641 2.06392C10.4892 1.63883 11.0657 1.40002 11.6669 1.40002C12.2681 1.40002 12.8446 1.63883 13.2697 2.06392C13.6948 2.489 13.9336 3.06553 13.9336 3.66669C13.9336 4.26785 13.6948 4.84438 13.2697 5.26947C12.8446 5.69455 12.2681 5.93336 11.6669 5.93336C11.0657 5.93336 10.4892 5.69455 10.0641 5.26947C10.0472 5.25256 10.0306 5.23541 10.0143 5.21803L6.50353 7.34501C6.56709 7.55556 6.60023 7.77608 6.60023 8.00002C6.60023 8.203 6.573 8.40317 6.52058 8.59565L10.0901 10.705C10.5126 10.2959 11.0779 10.0667 11.6669 10.0667C12.2681 10.0667 12.8446 10.3055 13.2697 10.7306C13.6948 11.1557 13.9336 11.7322 13.9336 12.3334C13.9336 12.9345 13.6948 13.5111 13.2697 13.9361C12.8446 14.3612 12.2681 14.6 11.6669 14.6C11.0657 14.6 10.4892 14.3612 10.0641 13.9361C9.63904 13.5111 9.40023 12.9345 9.40023 12.3334C9.40023 12.1305 9.42741 11.9305 9.47976 11.7382L5.91001 9.62871C5.48761 10.0376 4.9224 10.2667 4.33356 10.2667C3.7324 10.2667 3.15587 10.0279 2.73079 9.6028C2.3057 9.17772 2.06689 8.60118 2.06689 8.00002C2.06689 7.39887 2.3057 6.82233 2.73079 6.39725C3.15587 5.97217 3.7324 5.73336 4.33356 5.73336C4.90168 5.73336 5.44781 5.94664 5.86491 6.32887L9.4534 4.15479C9.41831 3.99572 9.40023 3.83214 9.40023 3.66669C9.40023 3.06553 9.63904 2.489 10.0641 2.06392ZM11.6669 2.60002C11.384 2.60002 11.1127 2.71241 10.9126 2.91244C10.7126 3.11248 10.6002 3.38379 10.6002 3.66669C10.6002 3.94959 10.7126 4.2209 10.9126 4.42094C11.1127 4.62098 11.384 4.73336 11.6669 4.73336C11.9498 4.73336 12.2211 4.62098 12.4211 4.42094C12.6212 4.2209 12.7336 3.94959 12.7336 3.66669C12.7336 3.38379 12.6212 3.11248 12.4211 2.91244C12.2211 2.71241 11.9498 2.60002 11.6669 2.60002ZM4.33356 6.93336C4.05066 6.93336 3.77935 7.04574 3.57931 7.24578C3.37928 7.44582 3.26689 7.71713 3.26689 8.00002C3.26689 8.28292 3.37927 8.55423 3.57931 8.75427C3.77935 8.95431 4.05066 9.06669 4.33356 9.06669C4.61646 9.06669 4.88777 8.95431 5.08781 8.75427C5.28785 8.55423 5.40023 8.28292 5.40023 8.00002C5.40023 7.71713 5.28785 7.44582 5.08781 7.24578C4.88777 7.04574 4.61646 6.93336 4.33356 6.93336ZM11.6669 11.2667C11.384 11.2667 11.1127 11.3791 10.9126 11.5791C10.7126 11.7792 10.6002 12.0505 10.6002 12.3334C10.6002 12.6163 10.7126 12.8876 10.9126 13.0876C11.1127 13.2876 11.384 13.4 11.6669 13.4C11.9498 13.4 12.2211 13.2876 12.4211 13.0876C12.6212 12.8876 12.7336 12.6163 12.7336 12.3334C12.7336 12.0505 12.6212 11.7792 12.4211 11.5791C12.2211 11.3791 11.9498 11.2667 11.6669 11.2667Z" fill="white"/>
</svg>
