<svg width="20" height="20" viewBox="0 0 20 20" fill="none" xmlns="http://www.w3.org/2000/svg">
<path fill-rule="evenodd" clip-rule="evenodd" d="M14.3743 17.5765C18.5586 15.1606 19.9923 9.81009 17.5765 5.62573C15.1606 1.44137 9.81009 0.00770032 5.62573 2.42354C1.44137 4.83939 0.00770032 10.1899 2.42354 14.3743C4.83939 18.5586 10.1899 19.9923 14.3743 17.5765ZM17.1697 11.322C17.474 9.67622 17.2162 7.91786 16.3137 6.35477C15.4113 4.79169 14.0174 3.68921 12.4399 3.12982C12.3233 3.44245 12.1997 3.83898 12.1104 4.29402C11.8835 5.44997 11.8839 6.9446 12.7359 8.4204C13.588 9.89621 14.8822 10.6438 15.9967 11.0254C16.4354 11.1755 16.8406 11.2668 17.1697 11.322ZM16.7603 12.7301C16.1728 14.1877 15.1117 15.467 13.6452 16.3137C12.1787 17.1604 10.5403 17.4397 8.98419 17.2197C9.10586 16.8734 9.22825 16.4566 9.32044 15.9867C9.59187 14.6035 9.60732 12.7221 8.5268 10.8506C7.44628 8.97904 5.80921 8.05172 4.47555 7.59515C4.02258 7.44008 3.60039 7.33764 3.23969 7.26989C3.82718 5.81226 4.88825 4.53298 6.35477 3.68629C7.8213 2.83959 9.45972 2.56031 11.0158 2.78034C10.8941 3.1266 10.7718 3.54344 10.6796 4.01326C10.4081 5.39653 10.3927 7.27793 11.4732 9.14945C12.5537 11.021 14.1908 11.9483 15.5244 12.4048C15.9774 12.5599 16.3996 12.6624 16.7603 12.7301ZM4.00329 8.97464C3.56457 8.82445 3.15936 8.73323 2.83028 8.67797C2.526 10.3238 2.78384 12.0821 3.68629 13.6452C4.58873 15.2083 5.98259 16.3108 7.56005 16.8702C7.67674 16.5576 7.80034 16.161 7.88963 15.706C8.11646 14.55 8.11611 13.0554 7.26406 11.5796C6.412 10.1038 5.11778 9.35618 4.00329 8.97464Z" fill="#25282B"/>
</svg>
