<svg width="20" height="20" viewBox="0 0 20 20" fill="none" xmlns="http://www.w3.org/2000/svg">
<path fill-rule="evenodd" clip-rule="evenodd" d="M15.6612 10.9295C15.5627 11.1499 15.4518 11.3674 15.3284 11.5811C13.789 14.2475 10.7602 15.518 7.89954 14.9483L5.96482 18.2994C5.61964 18.8973 4.85515 19.1021 4.25728 18.7569L2.52523 17.7569C1.92737 17.4117 1.72252 16.6473 2.0677 16.0494L4.00243 12.6983C2.07879 10.5057 1.66463 7.24753 3.20408 4.58112C5.13708 1.23308 9.41821 0.0859504 12.7663 2.01895C14.0243 2.74529 14.9716 3.80317 15.5615 5.01851C15.9162 5.07408 16.2668 5.19471 16.5964 5.38497C18.0313 6.2134 18.5229 8.04817 17.6945 9.48305C17.2412 10.2681 16.4866 10.7708 15.6612 10.9295ZM14.0294 10.8311C13.5793 11.6107 12.9671 12.2385 12.26 12.6963L3.77248 7.79604C3.81546 6.95475 4.05301 6.11074 4.50312 5.33112C6.0219 2.70052 9.38565 1.7992 12.0163 3.31799C12.8398 3.79343 13.4938 4.44967 13.9572 5.20762C13.3639 5.45064 12.8437 5.88488 12.4983 6.48305C11.6699 7.91793 12.1615 9.7527 13.5964 10.5811C13.7439 10.6663 13.8956 10.7375 14.05 10.7951L14.0294 10.8311ZM6.51626 12.8443C5.25053 12.1135 4.38515 10.9556 3.99707 9.65776L10.5355 13.4327C9.21744 13.7455 7.78199 13.575 6.51626 12.8443ZM3.49174 16.5829L5.13659 13.7339C5.33686 13.8798 5.54683 14.0166 5.76626 14.1433C5.98568 14.27 6.20912 14.3834 6.43563 14.4839L4.79078 17.3329L3.49174 16.5829ZM16.3954 8.73305C15.9812 9.45049 15.0638 9.6963 14.3464 9.28209C13.6289 8.86787 13.3831 7.95049 13.7973 7.23305C14.2116 6.51561 15.1289 6.2698 15.8464 6.68401C16.5638 7.09822 16.8096 8.01561 16.3954 8.73305Z" fill="#25282B"/>
</svg>
